<svg width="700" height="600" viewBox="0 0 700 600" fill="none" xmlns="http://www.w3.org/2000/svg">
<g clip-path="url(#clip0_100_116)">
<path d="M520.85 470.257H303.809C300.344 470.253 297.022 468.812 294.572 466.249C292.121 463.686 290.743 460.212 290.739 456.588V293.378C290.743 289.754 292.121 286.279 294.572 283.717C297.022 281.154 300.344 279.713 303.809 279.708H520.85C524.315 279.713 527.637 281.154 530.087 283.717C532.537 286.28 533.916 289.754 533.92 293.378V456.588C533.915 460.212 532.537 463.686 530.087 466.249C527.637 468.812 524.315 470.253 520.85 470.257Z" fill="#E6E6E6"/>
<path d="M307.821 459.36H516.838C518.518 459.36 520.13 458.662 521.319 457.419C522.507 456.176 523.175 454.49 523.175 452.732V297.233C523.175 295.475 522.507 293.789 521.319 292.546C520.13 291.304 518.518 290.605 516.838 290.605H307.821C306.141 290.605 304.529 291.304 303.34 292.546C302.152 293.789 301.484 295.475 301.484 297.233V452.732C301.484 454.49 302.152 456.176 303.34 457.419C304.529 458.662 306.141 459.36 307.821 459.36Z" fill="white"/>
<path d="M230.11 251.147H13.0699C9.60477 251.143 6.28266 249.701 3.83242 247.138C1.38218 244.576 0.00391424 241.101 0 237.477V74.2682C0.00391215 70.644 1.38218 67.1694 3.83242 64.6067C6.28266 62.044 9.60477 60.6025 13.0699 60.5984H230.11C233.575 60.6025 236.897 62.044 239.347 64.6067C241.798 67.1694 243.176 70.644 243.18 74.2682V237.477C243.176 241.101 241.798 244.576 239.347 247.138C236.897 249.701 233.575 251.143 230.11 251.147Z" fill="#E6E6E6"/>
<path d="M17.0818 240.25H226.098C227.779 240.25 229.391 239.552 230.579 238.309C231.767 237.066 232.435 235.38 232.435 233.622V78.1229C232.435 76.3651 231.767 74.6793 230.579 73.4364C229.391 72.1934 227.779 71.4951 226.098 71.4951H17.0818C15.4011 71.4951 13.7893 72.1934 12.6009 73.4364C11.4125 74.6793 10.7449 76.3651 10.7449 78.1229V233.622C10.7449 235.38 11.4125 237.066 12.6009 238.309C13.7893 239.552 15.4011 240.25 17.0818 240.25Z" fill="white"/>
<path d="M491.923 338.922H358.411C357.785 338.922 357.165 339.051 356.586 339.302C356.008 339.552 355.482 339.92 355.039 340.383C354.597 340.846 354.245 341.396 354.006 342.001C353.766 342.606 353.643 343.254 353.643 343.909C353.643 344.564 353.766 345.213 354.006 345.818C354.245 346.423 354.597 346.973 355.039 347.436C355.482 347.899 356.008 348.266 356.586 348.517C357.165 348.767 357.785 348.896 358.411 348.896H491.923C493.188 348.896 494.401 348.371 495.295 347.436C496.189 346.5 496.691 345.232 496.691 343.909C496.691 342.587 496.189 341.318 495.295 340.383C494.401 339.448 493.188 338.922 491.923 338.922Z" fill="#E6E6E6"/>
<path d="M358.411 369.612C357.785 369.612 357.165 369.741 356.586 369.992C356.008 370.242 355.482 370.61 355.039 371.073C354.597 371.536 354.245 372.086 354.006 372.691C353.766 373.296 353.643 373.944 353.643 374.599C353.643 375.254 353.766 375.903 354.006 376.508C354.245 377.113 354.597 377.663 355.039 378.126C355.482 378.589 356.008 378.956 356.586 379.207C357.165 379.457 357.785 379.586 358.411 379.586H491.923C493.188 379.586 494.401 379.061 495.295 378.126C496.189 377.19 496.691 375.922 496.691 374.599C496.691 373.277 496.189 372.008 495.295 371.073C494.401 370.137 493.188 369.612 491.923 369.612H358.411Z" fill="#E6E6E6"/>
<path d="M358.411 400.302C357.147 400.302 355.934 400.827 355.039 401.763C354.145 402.698 353.643 403.966 353.643 405.289C353.643 406.612 354.145 407.88 355.039 408.816C355.934 409.751 357.147 410.276 358.411 410.276H491.923C493.188 410.276 494.401 409.751 495.295 408.816C496.189 407.88 496.691 406.612 496.691 405.289C496.691 403.966 496.189 402.698 495.295 401.763C494.401 400.827 493.188 400.302 491.923 400.302H358.411Z" fill="#E6E6E6"/>
<path d="M333.103 350.431C336.344 350.431 338.971 347.683 338.971 344.293C338.971 340.903 336.344 338.155 333.103 338.155C329.861 338.155 327.234 340.903 327.234 344.293C327.234 347.683 329.861 350.431 333.103 350.431Z" fill="#203FBA"/>
<path d="M333.103 381.121C336.344 381.121 338.971 378.373 338.971 374.983C338.971 371.593 336.344 368.845 333.103 368.845C329.861 368.845 327.234 371.593 327.234 374.983C327.234 378.373 329.861 381.121 333.103 381.121Z" fill="#E6E6E6"/>
<path d="M333.103 411.811C336.344 411.811 338.971 409.063 338.971 405.673C338.971 402.283 336.344 399.535 333.103 399.535C329.861 399.535 327.234 402.283 327.234 405.673C327.234 409.063 329.861 411.811 333.103 411.811Z" fill="#E6E6E6"/>
<path d="M438.738 343.909C438.738 344.564 438.615 345.212 438.375 345.818C438.136 346.423 437.785 346.972 437.342 347.435C436.899 347.899 436.373 348.266 435.795 348.517C435.216 348.767 434.596 348.896 433.97 348.896H358.583C357.405 348.914 356.261 348.487 355.361 347.692C354.46 346.897 353.865 345.789 353.684 344.572C353.595 343.867 353.651 343.151 353.848 342.471C354.044 341.791 354.378 341.163 354.825 340.628C355.272 340.093 355.824 339.664 356.442 339.37C357.06 339.076 357.732 338.923 358.411 338.922H433.97C435.235 338.922 436.448 339.447 437.342 340.383C438.236 341.318 438.738 342.586 438.738 343.909Z" fill="#203FBA"/>
<path d="M412.329 258.744C422.863 258.744 431.403 249.813 431.403 238.796C431.403 227.779 422.863 218.847 412.329 218.847C401.796 218.847 393.256 227.779 393.256 238.796C393.256 249.813 401.796 258.744 412.329 258.744Z" fill="#E6E6E6"/>
<path d="M421.743 240.394C422.587 234.956 419.056 229.833 413.857 228.95C408.658 228.068 403.76 231.761 402.916 237.198C402.072 242.636 405.603 247.759 410.802 248.641C416.001 249.524 420.899 245.831 421.743 240.394Z" fill="white"/>
<path d="M32.5329 151.134C31.2796 151.134 30.0776 151.654 29.1914 152.581C28.3052 153.508 27.8074 154.765 27.8074 156.076C27.8074 157.387 28.3052 158.644 29.1914 159.571C30.0776 160.498 31.2796 161.019 32.5329 161.019H210.647C211.9 161.019 213.102 160.498 213.988 159.571C214.875 158.644 215.373 157.387 215.373 156.076C215.373 154.765 214.875 153.508 213.988 152.581C213.102 151.654 211.9 151.134 210.647 151.134H32.5329Z" fill="#E6E6E6"/>
<path d="M32.5329 181.548C31.2796 181.548 30.0776 182.069 29.1914 182.996C28.3052 183.923 27.8074 185.18 27.8074 186.491C27.8074 187.801 28.3052 189.059 29.1914 189.985C30.0776 190.912 31.2796 191.433 32.5329 191.433H210.647C211.9 191.433 213.102 190.912 213.988 189.985C214.875 189.059 215.373 187.801 215.373 186.491C215.373 185.18 214.875 183.923 213.988 182.996C213.102 182.069 211.9 181.548 210.647 181.548H32.5329Z" fill="#E6E6E6"/>
<path d="M112.139 213.484C110.886 213.484 109.684 214.004 108.798 214.931C107.911 215.858 107.414 217.115 107.414 218.426C107.414 219.737 107.911 220.994 108.798 221.921C109.684 222.848 110.886 223.368 112.139 223.368H131.041C132.294 223.368 133.496 222.848 134.382 221.921C135.269 220.994 135.766 219.737 135.766 218.426C135.766 217.115 135.269 215.858 134.382 214.931C133.496 214.004 132.294 213.484 131.041 213.484H112.139Z" fill="#203FBA"/>
<path d="M96.2616 88.377C95.8761 88.3774 95.5065 88.5377 95.2339 88.8228C94.9613 89.1079 94.808 89.4945 94.8076 89.8977V128.501C94.808 128.904 94.9613 129.291 95.2339 129.576C95.5065 129.861 95.8761 130.022 96.2616 130.022H146.919C147.304 130.022 147.674 129.861 147.946 129.576C148.219 129.291 148.372 128.904 148.372 128.501V89.8977C148.372 89.4945 148.219 89.1079 147.946 88.8228C147.674 88.5377 147.304 88.3774 146.919 88.377L96.2616 88.377Z" fill="#203FBA"/>
<path d="M121.59 113.294C126.007 113.294 129.587 109.549 129.587 104.93C129.587 100.311 126.007 96.5659 121.59 96.5659C117.173 96.5659 113.593 100.311 113.593 104.93C113.593 109.549 117.173 113.294 121.59 113.294Z" fill="white"/>
<path d="M134.676 126.22C134.679 127.542 134.38 128.845 133.804 130.022H109.376C108.754 128.747 108.455 127.326 108.508 125.895C108.561 124.465 108.964 123.072 109.679 121.851C110.394 120.63 111.397 119.622 112.591 118.922C113.786 118.223 115.132 117.856 116.501 117.856H126.679C128.799 117.855 130.832 118.734 132.332 120.301C133.832 121.868 134.675 123.994 134.676 126.211V126.22Z" fill="white"/>
<path d="M121.59 113.294C126.007 113.294 129.587 109.549 129.587 104.93C129.587 100.311 126.007 96.5659 121.59 96.5659C117.173 96.5659 113.593 100.311 113.593 104.93C113.593 109.549 117.173 113.294 121.59 113.294Z" fill="white"/>
<path d="M134.676 126.22C134.679 127.542 134.38 128.845 133.804 130.022H109.376C108.754 128.747 108.455 127.326 108.508 125.895C108.561 124.465 108.964 123.072 109.679 121.851C110.394 120.63 111.397 119.622 112.591 118.922C113.786 118.223 115.132 117.856 116.501 117.856H126.679C128.799 117.855 130.832 118.734 132.332 120.301C133.832 121.868 134.675 123.994 134.676 126.211V126.22Z" fill="white"/>
<path d="M121.59 39.5388C132.029 39.5388 140.492 30.6878 140.492 19.7694C140.492 8.85107 132.029 0 121.59 0C111.151 0 102.688 8.85107 102.688 19.7694C102.688 30.6878 111.151 39.5388 121.59 39.5388Z" fill="#E6E6E6"/>
<path d="M121.59 29.6542C126.809 29.6542 131.041 25.2286 131.041 19.7695C131.041 14.3103 126.809 9.88477 121.59 9.88477C116.37 9.88477 112.139 14.3103 112.139 19.7695C112.139 25.2286 116.37 29.6542 121.59 29.6542Z" fill="#203FBA"/>
<path d="M592.598 589.242L583.542 589.241L579.235 552.709L592.601 552.711L592.598 589.242Z" fill="#FFB8B8"/>
<path d="M577.074 586.535H594.538V598.036H566.078C566.078 596.526 566.362 595.03 566.915 593.635C567.467 592.239 568.277 590.972 569.298 589.904C570.319 588.836 571.532 587.989 572.866 587.411C574.2 586.833 575.63 586.535 577.074 586.535Z" fill="#2F2E41"/>
<path d="M641.41 589.242L632.353 589.241L628.047 552.709L641.413 552.711L641.41 589.242Z" fill="#FFB8B8"/>
<path d="M625.885 586.535H643.349V598.036H614.889C614.889 596.526 615.173 595.03 615.726 593.635C616.279 592.239 617.089 590.972 618.11 589.904C619.131 588.836 620.343 587.989 621.677 587.411C623.011 586.833 624.441 586.535 625.885 586.535Z" fill="#2F2E41"/>
<path d="M614.888 329.537C625.633 329.537 634.344 320.427 634.344 309.189C634.344 297.951 625.633 288.841 614.888 288.841C604.144 288.841 595.433 297.951 595.433 309.189C595.433 320.427 604.144 329.537 614.888 329.537Z" fill="#FFB8B8"/>
<path d="M548.364 441.892C548.5 440.765 548.871 439.683 549.45 438.722C550.029 437.762 550.802 436.945 551.715 436.331C552.628 435.716 553.659 435.319 554.735 435.166C555.811 435.013 556.906 435.109 557.943 435.447L568.816 421.815L578.348 426.705L562.735 445.731C562.077 447.515 560.816 448.984 559.191 449.861C557.567 450.737 555.691 450.96 553.919 450.487C552.148 450.014 550.604 448.878 549.58 447.293C548.557 445.709 548.124 443.787 548.364 441.892Z" fill="#FFB8B8"/>
<path d="M641.94 455.679C641.477 454.652 641.234 453.531 641.23 452.395C641.226 451.26 641.459 450.137 641.915 449.106C642.37 448.075 643.037 447.161 643.866 446.428C644.696 445.696 645.669 445.162 646.717 444.866L648.9 427.26L659.453 426.039L656.036 450.855C656.396 452.73 656.086 454.677 655.165 456.329C654.243 457.98 652.774 459.221 651.037 459.816C649.299 460.41 647.414 460.318 645.737 459.555C644.06 458.793 642.709 457.414 641.94 455.679Z" fill="#FFB8B8"/>
<path d="M631.147 347.622C632.182 346.233 633.549 345.154 635.109 344.493C636.67 343.833 638.37 343.615 640.037 343.861C641.704 344.107 643.28 344.809 644.605 345.896C645.93 346.982 646.958 348.415 647.584 350.05L663.53 391.673C665.16 395.926 665.679 400.556 665.036 405.089L659.842 441.673C659.775 442.145 659.611 442.596 659.362 442.996C659.113 443.396 658.784 443.734 658.398 443.989C658.012 444.243 657.578 444.408 657.126 444.471C656.673 444.534 656.214 444.494 655.777 444.354L648.934 442.156C648.226 441.928 647.616 441.448 647.211 440.799C646.806 440.149 646.631 439.372 646.717 438.602C649.133 417.064 645.941 395.244 637.478 375.446L629.961 357.86C629.252 356.201 628.988 354.372 629.197 352.569C629.406 350.765 630.08 349.056 631.147 347.622Z" fill="#203FBA"/>
<path d="M619.625 329.536C622.554 329.602 625.462 329.02 628.159 327.827C630.857 326.633 633.282 324.857 635.276 322.613C637.27 320.37 638.788 317.71 639.73 314.81C640.671 311.909 641.015 308.833 640.739 305.783C640.462 302.734 639.572 299.78 638.127 297.116C636.681 294.452 634.713 292.138 632.352 290.326C629.99 288.514 627.289 287.246 624.425 286.603C621.561 285.961 618.6 285.96 615.736 286.6C611.458 283.883 606.483 282.055 601.498 282.52C596.512 282.985 591.582 286.081 589.718 290.939C587.853 295.798 589.856 302.202 594.492 304.176C597.464 305.442 600.82 304.828 603.991 304.317C607.163 303.807 610.623 303.474 613.383 305.185C616.143 306.897 617.384 311.486 614.912 313.626C613.601 314.806 612.666 316.374 612.229 318.124C611.793 319.873 611.876 321.72 612.469 323.419C613.711 326.78 617.102 329.479 619.625 329.536Z" fill="#2F2E41"/>
<path d="M643.763 441.087L647.214 578.066C647.226 578.523 647.147 578.977 646.983 579.4C646.818 579.824 646.572 580.207 646.26 580.526C645.947 580.845 645.575 581.093 645.166 581.254C644.758 581.415 644.322 581.487 643.886 581.463L632.517 580.857C631.792 580.818 631.101 580.52 630.561 580.012C630.02 579.504 629.663 578.818 629.549 578.067L616.027 489.099C615.969 488.718 615.786 488.37 615.51 488.115C615.233 487.861 614.88 487.715 614.512 487.703C614.143 487.691 613.782 487.813 613.491 488.05C613.2 488.286 612.997 488.621 612.916 488.997L594.612 574.658C594.515 575.116 594.325 575.547 594.056 575.923C593.787 576.298 593.445 576.61 593.052 576.836C592.66 577.063 592.225 577.2 591.778 577.239C591.331 577.277 590.881 577.215 590.459 577.058L579.176 576.337C578.523 576.095 577.965 575.635 577.586 575.028C577.206 574.422 577.028 573.702 577.077 572.979L586.926 439.791L643.763 441.087Z" fill="#2F2E41"/>
<path d="M649.302 376.027C651.205 355.269 636.613 336.494 616.725 335.017C608.156 334.381 594.853 334.153 590.467 345.9C577.257 381.287 600.383 380.428 592.415 411.087C584.447 441.746 577.41 443.503 588.343 445.717C599.275 447.931 648.438 461 646.419 439.421C645.178 426.157 647.403 396.733 649.302 376.027Z" fill="#203FBA"/>
<path d="M592.807 342.301C594.377 341.665 596.08 341.474 597.743 341.746C599.407 342.019 600.972 342.745 602.281 343.853C603.59 344.96 604.597 346.409 605.2 348.054C605.802 349.698 605.98 351.48 605.714 353.218L599.504 393.806C598.442 400.747 595.636 407.267 591.373 412.701L571.206 438.403C570.917 438.772 570.554 439.072 570.144 439.28C569.734 439.489 569.285 439.603 568.829 439.614C568.373 439.625 567.92 439.533 567.501 439.344C567.082 439.155 566.707 438.873 566.402 438.519L561.612 432.955C561.116 432.379 560.829 431.639 560.8 430.864C560.772 430.089 561.004 429.329 561.457 428.715L562.867 426.8C574.6 410.876 582.001 391.933 584.29 371.972L586.758 350.445C586.965 348.641 587.637 346.93 588.703 345.496C589.768 344.061 591.187 342.957 592.807 342.301Z" fill="#203FBA"/>
<path d="M699.208 600H494.842C494.632 600 494.43 599.913 494.282 599.757C494.133 599.602 494.05 599.391 494.05 599.171C494.05 598.952 494.133 598.741 494.282 598.586C494.43 598.43 494.632 598.343 494.842 598.343H699.208C699.418 598.343 699.619 598.43 699.768 598.586C699.917 598.741 700 598.952 700 599.171C700 599.391 699.917 599.602 699.768 599.757C699.619 599.913 699.418 600 699.208 600Z" fill="#CCCCCC"/>
</g>
<defs>
<clipPath id="clip0_100_116">
<rect width="700" height="600" fill="white"/>
</clipPath>
</defs>
</svg>
